<svg xmlns="http://www.w3.org/2000/svg" viewBox="0 0 1028.8 254.22"><defs><style>.cls-1{fill:#0078b8;}.cls-2{fill:#fff;}</style></defs><title>Asset 1</title><g id="Layer_2" data-name="Layer 2"><g id="Layer_1-2" data-name="Layer 1"><rect class="cls-1" width="1028.8" height="254.22"/><path class="cls-2" d="M782.06,198.61v-37h2.82l6.22-1.24,4.41-1.59,4.18-2.37,3.73-2.71,3.39-3.39,2.94-3.85,2.83-5.31,1.46-4.41,1-4.63.11-4-.22-4.63-1-4.64-1.69-4.3L810,110.43l-2.83-3.73-5.09-4.63-3.95-2.49-4.3-2-4.52-1.24-4.75-.68H782V58.31l4.3.11,7.12.8,6.9,1.47L807,62.84l6.33,2.71,6.11,3.28,6,4.18,5.87,5.08,5.09,5.43,4.18,5.54,3.62,5.88,2.83,6,1.91,5.65.57,2.49V60.91h34l45.22,66.82-.11-67.16,37.08.34V197H932.29l-46-66.47V197H849.54V148.76l-.91,2.59-2.37,5.88-3.17,6.11-3.73,5.76-4.29,5.43-4.75,5L825,184,819.36,188l-6,3.39-6.44,2.83-7.23,2.26-7.13,1.47-6.78.68Zm0-140.3V95.62h-2.27l-4.74.68-4.52,1.35-4.31,2-4,2.49-3.62,3.16-3.16,3.51-2.6,4.07L751,117.1l-1.36,4.53-.79,4.74V131l.68,4.75,1.25,4.52,1.92,4.41.9,1.69.68.91,1.36,1.92,3.28,3.51,3.61,2.93,4.07,2.5L771,160l4.53,1.25,4.75.56,1.81-.11v37h-3.16l-6.79-.56-6.78-1.24-6.78-2.15L752.12,192,746,188.79l-5.66-3.86-5.08-4.29-2.15-1.81L731.31,177v20H653.42V60.91h36.51V163.33h31.33l-1.36-2.82-1.47-2.94-2.49-6.22L714,144.91l-1.36-6.79-.68-6.77v-6.67l.8-7,1.47-7.12,2-6.9L719,97.31l3.4-6,3.85-5.66,4.4-5.31,5-4.86,5.3-4.3,5.77-3.73,6-3,6.33-2.6L765.58,60l6.77-1.13,6.78-.56ZM396.21,174.75V143.09h8.25V117.77l-8.25,12.55V68.71l4.75-7.8h39.35V197H404.46V174.76h-8.25ZM470,197h36.17V94h26V60.91H445.05V94h25V197Zm65.9,0H572.8V145.7h37.31V197h36.62V60.91l-36.62-.11v52.45H572.8V60.91H535.94V197ZM122.18,95.84,125.45,97l4.41,2.14,4.07,2.72,3.63,3.17,3.16,3.62,2.6,4.07,2,4.29,1.35,4.53.79,4.41.23,4.06-.34,4.07-.79,4.3L145,142.77l-2.14,4.3-3.17,4.18-3.95,3.84-4.41,3.29-4.64,2.37-4.52,1.59v34.13l3.28-.45,7.69-1.93,7.23-2.59,6.1-3.05,5.88-3.85,5.43-4.41,4.75-4.63,4.18-5.2,4.07-6.11,2.15-3.62V197h75.18V164.25H209.23V145.48h38.89V113.14H209.23v-20h38.89V60.91H172.94V98.56l-.8-2.15-3-5.08-4.18-5.54L159.48,80l-5.65-4.86-5.76-4-6.67-3.4-8.25-2.94L125,62.72l-2.83-.45V95.84Zm274-27.13v61.61L388,143.1h8.25v31.66H375l-2.6,2.59-5.31,4.87-5.54,4.3-5.88,3.61-6.22,3.05-6.44,2.5-6.67,1.8-6.9,1.25-7,.45-6.9-.11-6.78-.91-7-1.57-7.13-2.38L288,191.27l-5.76-3.61-5.54-4.07-4.86-4.53L267.33,174l-4.07-5.43-3.51-6-3.16-7-2.6-7.68-1.7-7.12-.79-7-.22-6.78.57-6.89,1.13-6.79,1.81-6.66,2.59-6.67,3.28-6.45,3.85-5.76,4.29-5.32,4.75-4.75,5.31-4.29,5.65-3.84,6.34-3.39L298,63.19l7.23-2L312,59.91l6.9-.68,6.89.23,6.78.68,6.78,1.58L346.13,64l6.44,2.72,6,3.39,5.54,4,5.09,4.41,4.29,4.3,1.7,2L356.41,114,354,111.81l-2.37-2.15-5.32-4-6-3.61-6.44-2.94-6.45-1.81-5.65-.68-5.43.34-5.54,1.36-5.42,2L301,103.22l-3.62,3-3,3.62-2.6,4.07-1.92,4.41L288.47,123l-.56,4.62v4.63l.79,4.64,1.47,4.52,2,4.41,2.71,4,3.28,3.5,3.62,2.82,4.07,2.37,4.53,1.82,5.08,1.13,5.09.56,4.86-.34,4.52-.91,4.53-1.7,4.07-2.14,3.84-2.71,3-2.72,1.36-1.35,49.39-81.4ZM96.51,164.24V94h10.06l5,.11,4.74.45,4.64.8,1.24.45V62.27l-5.43-.79-9.26-.57H61.35V197h52.91l5-.21,2.94-.34V162.33l-.45.11-5.43,1.12L110,164l-3.5.23Z"/></g></g></svg>